HIERARCHY
ROOT Hips
{
	OFFSET 0.000000 87.230942 0.000000
	CHANNELS 6 Xposition Yposition Zposition Xrotation Yrotation Zrotation
	JOINT Pelvis
	{
		OFFSET 0.000000 0.000000 0.000000
		CHANNELS 3 Xrotation Yrotation Zrotation
		JOINT LeftUpLeg
		{
			OFFSET 12.017000 -9.376404 -2.439400
			CHANNELS 3 Xrotation Yrotation Zrotation
			JOINT LeftLeg
			{
				OFFSET -0.007312 -32.846973 2.110600
				CHANNELS 3 Xrotation Yrotation Zrotation
				JOINT LeftFoot
				{
					OFFSET 0.007312 -32.065170 -0.570400
					CHANNELS 3 Xrotation Yrotation Zrotation
					JOINT LeftToeBase
					{
						OFFSET 0.728300 -11.045900 13.180700
						CHANNELS 3 Xrotation Yrotation Zrotation
						End Site
						{
							OFFSET 0.000000 17.212589 0.000000
						}
					}
				}
				JOINT LeftPantLeg
				{
					OFFSET 0.002788 -16.709013 -3.143600
					CHANNELS 3 Xrotation Yrotation Zrotation
					End Site
					{
						OFFSET -0.605125 24.528742 0.000000
					}
				}
			}
			JOINT Left_Butt
			{
				OFFSET -6.630234 1.326584 -3.183700
				CHANNELS 3 Xrotation Yrotation Zrotation
				End Site
				{
					OFFSET -0.498041 20.188049 0.000000
				}
			}
		}
		JOINT RightUpLeg
		{
			OFFSET -11.717000 -9.376404 -2.439400
			CHANNELS 3 Xrotation Yrotation Zrotation
			JOINT RightLeg
			{
				OFFSET -0.003241 -32.846912 2.110600
				CHANNELS 3 Xrotation Yrotation Zrotation
				JOINT RightFoot
				{
					OFFSET 0.003241 -32.065136 -0.570500
					CHANNELS 3 Xrotation Yrotation Zrotation
					JOINT RightToeBase
					{
						OFFSET -0.728300 -11.045901 13.180700
						CHANNELS 3 Xrotation Yrotation Zrotation
						End Site
						{
							OFFSET 0.000000 17.212593 0.000000
						}
					}
				}
				JOINT RightPantLeg
				{
					OFFSET 0.008142 -16.708982 -3.143700
					CHANNELS 3 Xrotation Yrotation Zrotation
					End Site
					{
						OFFSET 0.605088 24.528715 0.000000
					}
				}
			}
			JOINT Right_Butt
			{
				OFFSET 6.630732 1.326584 -3.183700
				CHANNELS 3 Xrotation Yrotation Zrotation
				End Site
				{
					OFFSET 0.498015 20.188240 0.000000
				}
			}
		}
	}
	JOINT Spine
	{
		OFFSET -0.062400 7.848404 3.918300
		CHANNELS 3 Xrotation Yrotation Zrotation
		JOINT Spine1
		{
			OFFSET -0.072800 11.422302 0.713400
			CHANNELS 3 Xrotation Yrotation Zrotation
			JOINT Spine2
			{
				OFFSET -0.083200 13.054001 -1.931600
				CHANNELS 3 Xrotation Yrotation Zrotation
				JOINT Neck
				{
					OFFSET -0.092200 14.121796 -5.138800
					CHANNELS 3 Xrotation Yrotation Zrotation
					JOINT Head
					{
						OFFSET 0.000200 10.447403 -0.842000
						CHANNELS 3 Xrotation Yrotation Zrotation
						JOINT Visor
						{
							OFFSET 0.457100 25.671204 16.550400
							CHANNELS 3 Xrotation Yrotation Zrotation
							End Site
							{
								OFFSET 0.000000 26.061493 0.000000
							}
						}
						JOINT HairMidA
						{
							OFFSET 0.459400 31.585403 8.437400
							CHANNELS 3 Xrotation Yrotation Zrotation
							End Site
							{
								OFFSET 0.000000 26.061493 0.000000
							}
						}
						JOINT HairMidB
						{
							OFFSET 0.464000 33.309204 -8.389700
							CHANNELS 3 Xrotation Yrotation Zrotation
							End Site
							{
								OFFSET 0.000000 26.061493 0.000000
							}
						}
						JOINT HairMidC
						{
							OFFSET 0.466600 27.991196 -17.375099
							CHANNELS 3 Xrotation Yrotation Zrotation
							End Site
							{
								OFFSET 0.000000 26.061493 0.000000
							}
						}
						JOINT HairMidD
						{
							OFFSET 0.467700 17.888092 -21.169500
							CHANNELS 3 Xrotation Yrotation Zrotation
							End Site
							{
								OFFSET 0.000000 26.061493 0.000000
							}
						}
						JOINT HairMidE
						{
							OFFSET 5.325700 3.514603 -14.369699
							CHANNELS 3 Xrotation Yrotation Zrotation
							End Site
							{
								OFFSET 0.000000 26.061493 0.000000
							}
						}
						JOINT HairMidF
						{
							OFFSET -4.394100 3.514603 -14.372400
							CHANNELS 3 Xrotation Yrotation Zrotation
							End Site
							{
								OFFSET 0.000000 26.061493 0.000000
							}
						}
						JOINT HairLeftA
						{
							OFFSET 15.319900 25.746506 2.623300
							CHANNELS 3 Xrotation Yrotation Zrotation
							End Site
							{
								OFFSET 0.000000 26.061493 0.000000
							}
						}
						JOINT HairLeftB
						{
							OFFSET 12.619500 29.289398 -8.731499
							CHANNELS 3 Xrotation Yrotation Zrotation
							End Site
							{
								OFFSET 0.000000 26.061493 0.000000
							}
						}
						JOINT HairLeftC
						{
							OFFSET 15.714800 15.959900 2.909800
							CHANNELS 3 Xrotation Yrotation Zrotation
							End Site
							{
								OFFSET 0.000000 26.061493 0.000000
							}
						}
						JOINT HairLeftD
						{
							OFFSET 16.101700 18.437408 -7.553200
							CHANNELS 3 Xrotation Yrotation Zrotation
							End Site
							{
								OFFSET 0.000000 26.061493 0.000000
							}
						}
						JOINT HairLeftE
						{
							OFFSET 9.731900 17.915009 -18.316799
							CHANNELS 3 Xrotation Yrotation Zrotation
							End Site
							{
								OFFSET 0.000000 26.061493 0.000000
							}
						}
						JOINT HairLeftF
						{
							OFFSET 11.204300 4.953598 -9.668100
							CHANNELS 3 Xrotation Yrotation Zrotation
							End Site
							{
								OFFSET 0.000000 26.061493 0.000000
							}
						}
						JOINT HairRightA
						{
							OFFSET -14.397900 25.746307 2.615100
							CHANNELS 3 Xrotation Yrotation Zrotation
							End Site
							{
								OFFSET 0.000000 26.061493 0.000000
							}
						}
						JOINT HairRightB
						{
							OFFSET -11.691200 29.289200 -8.738199
							CHANNELS 3 Xrotation Yrotation Zrotation
							End Site
							{
								OFFSET 0.000000 26.061493 0.000000
							}
						}
						JOINT HairRightC
						{
							OFFSET -14.792900 15.959702 2.901400
							CHANNELS 3 Xrotation Yrotation Zrotation
							End Site
							{
								OFFSET 0.000000 26.061493 0.000000
							}
						}
						JOINT HairRightD
						{
							OFFSET -15.174000 18.437195 -7.561900
							CHANNELS 3 Xrotation Yrotation Zrotation
							End Site
							{
								OFFSET 0.000000 26.061493 0.000000
							}
						}
						JOINT HairRightE
						{
							OFFSET -8.798200 17.914902 -18.322001
							CHANNELS 3 Xrotation Yrotation Zrotation
							End Site
							{
								OFFSET 0.000000 26.061493 0.000000
							}
						}
						JOINT HairRightF
						{
							OFFSET -10.275200 4.953506 -9.674099
							CHANNELS 3 Xrotation Yrotation Zrotation
							End Site
							{
								OFFSET 0.000000 26.061493 0.000000
							}
						}
					}
				}
				JOINT LeftShoulder
				{
					OFFSET 5.133500 7.341202 -1.867600
					CHANNELS 3 Xrotation Yrotation Zrotation
					JOINT LeftArm
					{
						OFFSET 8.072663 0.936867 -2.176600
						CHANNELS 3 Xrotation Yrotation Zrotation
						JOINT LeftForeArm
						{
							OFFSET 31.271999 0.000000 0.000000
							CHANNELS 3 Xrotation Yrotation Zrotation
							JOINT LeftHand
							{
								OFFSET 31.771030 0.000000 0.000000
								CHANNELS 3 Xrotation Yrotation Zrotation
								JOINT LeftHandThumb1
								{
									OFFSET 2.886520 -2.557846 4.416640
									CHANNELS 3 Xrotation Yrotation Zrotation
									JOINT LeftHandThumb2
									{
										OFFSET 2.371025 -1.368912 1.368911
										CHANNELS 3 Xrotation Yrotation Zrotation
										JOINT LeftHandThumb3
										{
											OFFSET 2.243378 -1.295212 1.295213
											CHANNELS 3 Xrotation Yrotation Zrotation
											End Site
											{
												OFFSET -0.332611 2.876945 0.020015
											}
										}
									}
								}
								JOINT LeftHandIndex1
								{
									OFFSET 8.568985 -0.641945 3.119977
									CHANNELS 3 Xrotation Yrotation Zrotation
									JOINT LeftHandIndex2
									{
										OFFSET 3.348503 0.000000 0.000000
										CHANNELS 3 Xrotation Yrotation Zrotation
										JOINT LeftHandIndex3
										{
											OFFSET 3.314552 0.000000 0.000000
											CHANNELS 3 Xrotation Yrotation Zrotation
											End Site
											{
												OFFSET -1.032898 3.075485 0.678796
											}
										}
									}
								}
								JOINT LeftHandMiddle1
								{
									OFFSET 8.124603 0.000000 0.000000
									CHANNELS 3 Xrotation Yrotation Zrotation
									JOINT LeftHandMiddle2
									{
										OFFSET 4.166275 0.000000 0.000000
										CHANNELS 3 Xrotation Yrotation Zrotation
										JOINT LeftHandMiddle3
										{
											OFFSET 3.018135 0.000000 0.000000
											CHANNELS 3 Xrotation Yrotation Zrotation
											End Site
											{
												OFFSET -1.032700 2.767982 0.617226
											}
										}
									}
								}
								JOINT LeftHandRing1
								{
									OFFSET 8.571686 -0.031357 -2.884048
									CHANNELS 3 Xrotation Yrotation Zrotation
									JOINT LeftHandRing2
									{
										OFFSET 3.671181 0.000000 0.000000
										CHANNELS 3 Xrotation Yrotation Zrotation
										JOINT LeftHandRing3
										{
											OFFSET 2.728851 0.000000 0.000000
											CHANNELS 3 Xrotation Yrotation Zrotation
											End Site
											{
												OFFSET -0.815796 2.539223 0.577389
											}
										}
									}
								}
								JOINT LeftHandPinky1
								{
									OFFSET 7.854515 -0.675232 -5.213020
									CHANNELS 3 Xrotation Yrotation Zrotation
									JOINT LeftHandPinky2
									{
										OFFSET 3.068596 0.000000 0.000000
										CHANNELS 3 Xrotation Yrotation Zrotation
										JOINT LeftHandPinky3
										{
											OFFSET 2.396042 0.000000 0.000000
											CHANNELS 3 Xrotation Yrotation Zrotation
											End Site
											{
												OFFSET -0.524597 2.267998 0.567429
											}
										}
									}
								}
							}
							JOINT LeftSleeve
							{
								OFFSET 19.684509 -0.200119 0.476146
								CHANNELS 3 Xrotation Yrotation Zrotation
								End Site
								{
									OFFSET -0.031017 25.731133 -0.002868
								}
							}
						}
					}
				}
				JOINT RightShoulder
				{
					OFFSET -4.395900 7.341202 -1.870200
					CHANNELS 3 Xrotation Yrotation Zrotation
					JOINT RightArm
					{
						OFFSET -8.071453 0.936867 -2.181100
						CHANNELS 3 Xrotation Yrotation Zrotation
						JOINT RightForeArm
						{
							OFFSET -31.272011 0.000000 0.000000
							CHANNELS 3 Xrotation Yrotation Zrotation
							JOINT RightHand
							{
								OFFSET -31.771019 0.000000 0.000000
								CHANNELS 3 Xrotation Yrotation Zrotation
								JOINT RightHandThumb1
								{
									OFFSET -2.886520 -2.557808 4.416626
									CHANNELS 3 Xrotation Yrotation Zrotation
									JOINT RightHandThumb2
									{
										OFFSET -2.371056 -1.368927 1.368928
										CHANNELS 3 Xrotation Yrotation Zrotation
										JOINT RightHandThumb3
										{
											OFFSET -2.243362 -1.295204 1.295206
											CHANNELS 3 Xrotation Yrotation Zrotation
											End Site
											{
												OFFSET 0.332642 2.876938 0.020047
											}
										}
									}
								}
								JOINT RightHandIndex1
								{
									OFFSET -8.568993 -0.641953 3.120017
									CHANNELS 3 Xrotation Yrotation Zrotation
									JOINT RightHandIndex2
									{
										OFFSET -3.348518 0.000000 0.000000
										CHANNELS 3 Xrotation Yrotation Zrotation
										JOINT RightHandIndex3
										{
											OFFSET -3.314552 0.000000 0.000000
											CHANNELS 3 Xrotation Yrotation Zrotation
											End Site
											{
												OFFSET 1.032898 3.075478 0.678804
											}
										}
									}
								}
								JOINT RightHandMiddle1
								{
									OFFSET -8.124588 0.000000 0.000000
									CHANNELS 3 Xrotation Yrotation Zrotation
									JOINT RightHandMiddle2
									{
										OFFSET -4.166275 0.000000 0.000000
										CHANNELS 3 Xrotation Yrotation Zrotation
										JOINT RightHandMiddle3
										{
											OFFSET -3.018097 0.000000 0.000000
											CHANNELS 3 Xrotation Yrotation Zrotation
											End Site
											{
												OFFSET 1.032700 2.767937 0.617197
											}
										}
									}
								}
								JOINT RightHandRing1
								{
									OFFSET -8.571747 -0.031349 -2.884061
									CHANNELS 3 Xrotation Yrotation Zrotation
									JOINT RightHandRing2
									{
										OFFSET -3.671204 0.000000 0.000000
										CHANNELS 3 Xrotation Yrotation Zrotation
										JOINT RightHandRing3
										{
											OFFSET -2.728874 0.000000 0.000000
											CHANNELS 3 Xrotation Yrotation Zrotation
											End Site
											{
												OFFSET 0.815804 2.539261 0.577413
											}
										}
									}
								}
								JOINT RightHandPinky1
								{
									OFFSET -7.854561 -0.675247 -5.212970
									CHANNELS 3 Xrotation Yrotation Zrotation
									JOINT RightHandPinky2
									{
										OFFSET -3.068550 0.000000 0.000000
										CHANNELS 3 Xrotation Yrotation Zrotation
										JOINT RightHandPinky3
										{
											OFFSET -2.395981 0.000000 0.000000
											CHANNELS 3 Xrotation Yrotation Zrotation
											End Site
											{
												OFFSET 0.524605 2.267952 0.567413
											}
										}
									}
								}
							}
							JOINT RightSleeve
							{
								OFFSET -19.684753 -0.200165 0.476065
								CHANNELS 3 Xrotation Yrotation Zrotation
								End Site
								{
									OFFSET 0.031342 25.731255 -0.002917
								}
							}
						}
					}
				}
				JOINT Hood
				{
					OFFSET 0.369700 14.447800 -5.317800
					CHANNELS 3 Xrotation Yrotation Zrotation
					JOINT Hood1
					{
						OFFSET 0.001700 -5.553802 -5.895100
						CHANNELS 3 Xrotation Yrotation Zrotation
						JOINT Hood2
						{
							OFFSET -0.000200 -8.380501 0.763600
							CHANNELS 3 Xrotation Yrotation Zrotation
							End Site
							{
								OFFSET 0.000000 8.415215 0.000000
							}
						}
					}
				}
				JOINT Left_Breast
				{
					OFFSET 5.682500 3.120102 3.188800
					CHANNELS 3 Xrotation Yrotation Zrotation
					End Site
					{
						OFFSET 0.000000 10.528564 0.000000
					}
				}
				JOINT Right_Breast
				{
					OFFSET -4.947600 3.120102 3.185900
					CHANNELS 3 Xrotation Yrotation Zrotation
					End Site
					{
						OFFSET 0.000000 10.528564 0.000000
					}
				}
				JOINT Whistle
				{
					OFFSET 0.368200 11.471298 0.095400
					CHANNELS 3 Xrotation Yrotation Zrotation
					JOINT Whistle1
					{
						OFFSET -0.002000 -6.349899 7.479800
						CHANNELS 3 Xrotation Yrotation Zrotation
						JOINT Whistle2
						{
							OFFSET -0.001300 -8.217598 4.717600
							CHANNELS 3 Xrotation Yrotation Zrotation
							End Site
							{
								OFFSET 0.000000 9.475479 0.000000
							}
						}
					}
				}
			}
		}
		JOINT Belly
		{
			OFFSET 0.212400 1.593002 3.163700
			CHANNELS 3 Xrotation Yrotation Zrotation
			End Site
			{
				OFFSET 0.000000 7.496635 0.000000
			}
		}
	}
	JOINT FitGrandmaFacialAnim_Joint
	{
		OFFSET 1.150000 -86.211197 -1.220100
		CHANNELS 3 Xrotation Yrotation Zrotation
		End Site
		{
			OFFSET 0.000000 31.666618 0.000000
		}
	}
}
MOTION
Frames: 4
Frame Time: 0.016667
10.296583 55.039764 -31.456951 49.277431 -31.547869 17.567772 -0.000000 -0.000000 -0.000000 -58.787431 -3.885112 0.926180 106.251734 -4.755661 0.403931 -0.552372 -6.424646 -8.405614 0.000000 0.000002 -0.000002 -0.000000 0.000001 0.000001 -0.000002 0.000003 0.000000 -97.283935 -11.726620 -16.622903 107.541690 -11.870664 6.615578 -36.405813 -10.495963 6.579260 0.000000 -0.000001 0.000000 -0.000000 0.000002 0.000001 -0.000003 0.000002 0.000000 30.683013 9.917135 2.256922 6.860060 2.066864 1.129961 6.835849 2.135327 1.146296 -7.949783 -4.235517 1.372948 -21.131454 -17.422411 -7.101422 0.000001 -0.000001 0.000003 0.000001 -0.000001 0.000003 0.000001 -0.000001 0.000003 0.000001 -0.000001 0.000003 0.000001 -0.000001 0.000003 0.000001 -0.000001 0.000003 0.000001 -0.000001 0.000003 0.000001 -0.000001 0.000003 0.000001 -0.000001 0.000003 0.000001 -0.000001 0.000003 0.000001 -0.000001 0.000003 0.000001 -0.000001 0.000003 0.000001 -0.000001 0.000003 0.000001 -0.000001 0.000003 0.000001 -0.000001 0.000003 0.000001 -0.000001 0.000003 0.000001 -0.000001 0.000003 0.000001 -0.000001 0.000003 0.000001 -0.000001 0.000003 5.673088 -23.734088 -9.066816 -27.862345 -10.438786 -41.186468 -0.000023 -38.893447 -0.000004 -42.320255 -3.346965 4.206363 -1.538528 3.693645 6.118941 3.939058 7.948712 0.746794 -0.000001 -0.000001 -0.000002 0.298626 2.009578 -16.903106 0.539669 2.676790 -22.793537 -0.000001 -0.000000 -0.000003 0.298058 2.007743 -16.887095 0.540431 2.678575 -22.809555 -0.000005 0.000000 -0.000003 0.298635 2.009588 -16.903111 0.539661 2.676811 -22.793516 0.000004 0.000001 0.000001 1.465408 5.893270 -16.473117 0.545012 -1.382185 -23.265260 0.000007 -0.000001 0.000001 0.000001 0.000000 -0.000000 -0.454816 29.350986 14.140370 -42.011930 48.862729 12.344913 0.000015 14.620228 -0.000032 -4.045426 -7.800925 -22.899227 -1.848192 -3.584402 -6.569217 4.637195 -8.634136 -0.225402 -0.000000 0.000003 0.000003 0.480691 -2.544866 21.389431 1.003305 -3.603134 31.111293 -0.000003 -0.000000 0.000003 0.480689 -2.544872 21.389417 1.003307 -3.603116 31.111300 0.000001 0.000001 -0.000001 0.480694 -2.544881 21.389427 1.003313 -3.603116 31.111290 0.000001 -0.000002 0.000001 0.480692 -2.544887 21.389426 1.003305 -3.603108 31.111286 0.000001 -0.000001 0.000001 -0.000002 -0.000000 -0.000001 -0.000001 -0.000000 0.000002 -0.000001 -0.000000 0.000002 -0.000001 -0.000000 0.000002 -0.000001 -0.000000 0.000002 -0.000001 -0.000000 0.000002 -0.000001 -0.000000 0.000002 0.000000 -0.000000 0.000000 0.000000 -0.000000 0.000000 0.000002 0.000001 -0.000003 -0.000000 -0.000000 -0.000000 
10.340744 55.346954 -31.340008 48.847034 -32.069644 17.617638 0.000001 0.000004 -0.000003 -60.254720 -4.317033 1.579114 107.315440 -4.629936 0.015371 0.419783 -5.999276 -8.136633 0.000001 -0.000001 0.000000 0.000000 -0.000001 -0.000001 -0.000004 -0.000002 0.000001 -96.316623 -11.651362 -16.424153 106.924719 -11.768906 6.594801 -36.255836 -10.445770 6.773339 -0.000000 0.000001 -0.000000 -0.000000 0.000000 -0.000000 0.000006 -0.000001 -0.000003 30.728997 9.827136 1.947713 6.860457 2.055448 1.057262 6.836465 2.123752 1.073444 -7.756115 -4.044932 1.169400 -20.994373 -16.671641 -7.271160 -0.000002 0.000001 -0.000001 -0.000002 0.000001 -0.000001 -0.000002 0.000001 -0.000001 -0.000002 0.000001 -0.000001 -0.000002 0.000001 -0.000001 -0.000002 0.000001 -0.000001 -0.000002 0.000001 -0.000001 -0.000002 0.000001 -0.000001 -0.000002 0.000001 -0.000001 -0.000002 0.000001 -0.000001 -0.000002 0.000001 -0.000001 -0.000002 0.000001 -0.000001 -0.000002 0.000001 -0.000001 -0.000002 0.000001 -0.000001 -0.000002 0.000001 -0.000001 -0.000002 0.000001 -0.000001 -0.000002 0.000001 -0.000001 -0.000002 0.000001 -0.000001 -0.000002 0.000001 -0.000001 5.677202 -23.780717 -9.018286 -27.386367 -9.567774 -41.312345 -0.000025 -39.455161 -0.000003 -42.046955 -3.027398 4.146425 -1.537379 3.696285 6.101098 3.939052 7.948716 0.746818 0.000002 0.000002 -0.000000 0.298625 2.009585 -16.903099 0.539673 2.676790 -22.793538 -0.000003 -0.000001 -0.000001 0.298073 2.007740 -16.887103 0.540419 2.678558 -22.809599 -0.000006 -0.000004 -0.000000 0.298627 2.009596 -16.903093 0.539670 2.676811 -22.793542 -0.000002 -0.000000 0.000000 1.465411 5.893272 -16.473112 0.545010 -1.382200 -23.265315 0.000003 -0.000000 -0.000001 -0.000001 0.000001 0.000000 -0.367076 28.852358 13.849375 -40.871592 48.371519 12.524511 -0.000011 16.563856 0.000010 -4.109963 -7.929979 -21.633350 -1.847392 -3.586394 -6.556345 4.637192 -8.634128 -0.225393 -0.000001 -0.000000 -0.000006 0.480687 -2.544871 21.389424 1.003310 -3.603125 31.111300 -0.000002 -0.000000 0.000001 0.480689 -2.544870 21.389407 1.003311 -3.603111 31.111300 -0.000000 0.000000 0.000002 0.480690 -2.544877 21.389402 1.003304 -3.603114 31.111324 0.000001 -0.000001 0.000001 0.480691 -2.544886 21.389396 1.003318 -3.603102 31.111324 -0.000001 0.000000 -0.000000 0.000002 -0.000001 0.000002 -0.000000 -0.000000 0.000002 -0.000000 -0.000000 0.000002 -0.000000 -0.000000 0.000002 -0.000000 -0.000000 0.000002 -0.000000 -0.000000 0.000002 -0.000000 -0.000000 0.000001 0.000000 -0.000000 0.000001 0.000000 -0.000000 0.000001 0.000001 0.000000 -0.000002 0.000001 0.000004 -0.000003 
10.376307 55.668274 -31.187363 48.365696 -32.590135 17.673710 -0.000002 0.000001 -0.000000 -61.696921 -4.750984 2.106661 108.287267 -4.866779 -0.098543 1.416815 -5.237185 -8.344150 0.000000 0.000001 -0.000001 0.000000 0.000001 -0.000000 -0.000002 0.000003 0.000002 -95.257336 -11.531644 -16.266553 106.297544 -11.658416 6.570703 -36.156108 -10.381431 7.005680 -0.000000 0.000001 0.000001 -0.000002 0.000002 -0.000001 0.000002 0.000001 0.000000 30.839612 9.755787 1.594282 6.900524 2.048715 0.955039 6.876927 2.117281 0.970891 -7.571712 -3.834395 0.935131 -20.880411 -15.870593 -7.421773 -0.000002 0.000000 0.000002 -0.000002 0.000000 0.000002 -0.000002 0.000000 0.000002 -0.000002 0.000000 0.000002 -0.000002 0.000000 0.000002 -0.000002 0.000000 0.000002 -0.000002 0.000000 0.000002 -0.000002 0.000000 0.000002 -0.000002 0.000000 0.000002 -0.000002 0.000000 0.000002 -0.000002 0.000000 0.000002 -0.000002 0.000000 0.000002 -0.000002 0.000000 0.000002 -0.000002 0.000000 0.000002 -0.000002 0.000000 0.000002 -0.000002 0.000000 0.000002 -0.000002 0.000000 0.000002 -0.000002 0.000000 0.000002 -0.000002 0.000000 0.000002 5.697507 -23.899184 -8.949585 -27.065939 -8.692572 -41.259844 0.000007 -40.071593 -0.000002 -41.576478 -2.697395 3.764268 -1.540038 3.690189 6.142368 3.939059 7.948713 0.746806 -0.000000 0.000001 -0.000000 0.298632 2.009568 -16.903098 0.539680 2.676801 -22.793557 0.000001 -0.000001 0.000000 0.298070 2.007733 -16.887098 0.540427 2.678581 -22.809555 0.000000 -0.000002 0.000000 0.298628 2.009586 -16.903099 0.539685 2.676822 -22.793554 -0.000000 0.000000 0.000000 1.465415 5.893269 -16.473129 0.545009 -1.382181 -23.265298 0.000001 -0.000001 0.000000 0.000000 0.000001 -0.000000 -0.244518 28.311465 13.397238 -39.815884 48.075270 12.700966 -0.000011 18.268893 0.000019 -4.377006 -7.996915 -20.176854 -1.846503 -3.588580 -6.542170 4.637193 -8.634136 -0.225417 0.000002 -0.000000 -0.000002 0.480687 -2.544872 21.389412 1.003314 -3.603122 31.111283 -0.000001 -0.000000 -0.000001 0.480690 -2.544869 21.389405 1.003315 -3.603113 31.111283 -0.000001 0.000001 -0.000005 0.480689 -2.544874 21.389408 1.003302 -3.603127 31.111273 0.000001 -0.000000 0.000003 0.480691 -2.544884 21.389405 1.003310 -3.603106 31.111276 0.000001 -0.000001 0.000001 -0.000002 -0.000001 -0.000001 -0.000000 -0.000000 -0.000000 -0.000000 -0.000000 -0.000000 -0.000000 -0.000000 -0.000000 -0.000000 -0.000000 -0.000000 -0.000000 -0.000000 -0.000000 -0.000000 -0.000000 -0.000000 -0.000000 -0.000000 0.000001 -0.000000 -0.000000 0.000001 -0.000000 0.000000 -0.000001 -0.000002 0.000001 -0.000000 
10.396532 56.024681 -31.002941 47.796250 -33.127828 17.753612 -0.000000 0.000000 -0.000002 -63.010906 -5.203349 2.513191 109.095026 -5.198649 -0.048898 2.300676 -4.750397 -8.904734 0.000001 0.000000 0.000001 0.000001 -0.000000 0.000003 0.000002 0.000001 0.000001 -94.069286 -11.356855 -16.091311 105.631915 -11.553852 6.511314 -36.113563 -10.358198 7.222728 0.000000 -0.000000 0.000001 0.000000 0.000000 0.000001 0.000003 0.000003 0.000004 31.048165 9.688900 1.162228 6.923756 2.044799 0.861479 6.900703 2.113028 0.877185 -7.371926 -3.600004 0.660445 -20.823123 -15.011134 -7.545698 -0.000005 -0.000002 -0.000001 -0.000005 -0.000002 -0.000001 -0.000005 -0.000002 -0.000001 -0.000005 -0.000002 -0.000001 -0.000005 -0.000002 -0.000001 -0.000005 -0.000002 -0.000001 -0.000005 -0.000002 -0.000001 -0.000005 -0.000002 -0.000001 -0.000005 -0.000002 -0.000001 -0.000005 -0.000002 -0.000001 -0.000005 -0.000002 -0.000001 -0.000005 -0.000002 -0.000001 -0.000005 -0.000002 -0.000001 -0.000005 -0.000002 -0.000001 -0.000005 -0.000002 -0.000001 -0.000005 -0.000002 -0.000001 -0.000005 -0.000002 -0.000001 -0.000005 -0.000002 -0.000001 -0.000005 -0.000002 -0.000001 5.758439 -24.143189 -8.911106 -26.806428 -7.789653 -40.855559 -0.000035 -40.789709 -0.000026 -40.997452 -2.407525 3.305854 -1.540044 3.690194 6.142353 3.939055 7.948693 0.746801 -0.000001 0.000001 0.000001 0.298632 2.009591 -16.903089 0.539669 2.676784 -22.793538 0.000004 0.000003 -0.000002 0.298065 2.007751 -16.887076 0.540418 2.678556 -22.809589 -0.000004 -0.000003 -0.000000 0.298631 2.009596 -16.903087 0.539676 2.676808 -22.793535 0.000002 0.000003 -0.000003 1.465402 5.893280 -16.473096 0.545005 -1.382194 -23.265301 0.000001 -0.000000 -0.000000 -0.000001 0.000001 -0.000000 -0.090562 27.840273 12.771133 -38.951599 47.768758 12.863090 0.000000 19.980743 -0.000010 -4.789532 -8.173844 -18.486419 -1.849250 -3.581787 -6.586138 4.637193 -8.634133 -0.225398 0.000000 -0.000003 -0.000002 0.480691 -2.544864 21.389410 1.003307 -3.603131 31.111327 -0.000003 0.000001 0.000001 0.480688 -2.544870 21.389410 1.003310 -3.603112 31.111310 -0.000002 0.000001 -0.000001 0.480691 -2.544878 21.389400 1.003309 -3.603116 31.111314 0.000000 -0.000000 0.000001 0.480694 -2.544882 21.389403 1.003308 -3.603100 31.111320 0.000001 0.000000 0.000000 0.000002 -0.000000 -0.000001 0.000000 -0.000000 0.000002 0.000000 -0.000000 0.000002 0.000000 -0.000000 0.000002 0.000000 -0.000000 0.000002 0.000000 -0.000000 0.000002 -0.000000 -0.000000 0.000001 -0.000000 -0.000000 0.000002 -0.000000 -0.000000 0.000002 -0.000001 -0.000000 -0.000003 -0.000000 0.000000 -0.000002 
